<svg width="301" height="300" viewBox="0 0 301 300" fill="none" xmlns="http://www.w3.org/2000/svg">
<rect x="0.675903" width="300" height="300" rx="150" fill="#05090F"/>
<path d="M199.25 169.527L152.528 146.488L150.667 147.633L149.25 146.271L102.083 169.527L100.222 172.511L101.357 175.136L146.482 197.381H150.667H154.851L199.967 175.136L201.111 172.511L199.25 169.527Z" fill="#95001A"/>
<path d="M100.222 172.512L150.666 197.381V199.446L117.978 215.569H113.784L100.222 208.788L98.3611 206.029V175.487L100.222 172.512Z" fill="#40004D"/>
<path d="M201.111 172.512L150.685 197.381V199.446L183.373 215.569H187.567L201.129 208.788L202.99 206.029V175.487L201.111 172.512Z" fill="#520033"/>
<path d="M201.129 123.052L199.268 124.206V169.527L201.111 172.512L202.99 175.487L233.482 190.519H237.666L243.676 187.516L201.129 123.052Z" fill="#FFA80A"/>
<path d="M100.223 123.052L102.084 124.206V169.527L100.223 172.512L98.3617 175.487L67.87 190.519H63.6853L57.6759 187.516L100.223 123.052Z" fill="#FF3417"/>
<path d="M100.223 208.788L63.6855 190.519L100.223 172.512V208.788Z" fill="#6D0044"/>
<path d="M150.666 234L187.54 215.569L150.666 197.381L113.784 215.569L150.666 234Z" fill="#6D0074"/>
<path d="M201.129 208.788L237.666 190.519L201.111 172.512L201.129 208.788Z" fill="#6D0044"/>
<path d="M150.676 66H137.885L100.222 123.052L102.083 124.206L150.667 100.247V98.1825L152.527 96.893L152.537 67.6141L150.676 66Z" fill="#FFA80A"/>
<path d="M150.667 98.1828L100.222 123.052V172.512L150.667 147.633L152.528 146.488V101.158L150.667 98.1828Z" fill="#D7001F"/>
<path d="M150.675 66H163.466L201.129 123.052L199.268 124.206L152.527 101.158L150.666 98.1825L150.675 66Z" fill="#FFE50A"/>
<path d="M201.111 172.512L150.666 147.633V98.1828L201.111 123.052V172.512Z" fill="#EF8109"/>
</svg>
